 <svg width="204" height="143" viewBox="0 0 204 143" fill="none" xmlns="http://www.w3.org/2000/svg">
<g clip-path="url(#clip0_2_12)">
<path d="M214 -9.5C211.167 -9.33333 202.3 -9.1 189.5 -9.5C172.7 -10.3582 157.167 12.1424 151.5 23.5C136.167 24.1667 96.5 28.5 60.5 40.5C15.5 55.5 77 93.5 95.5 111.5C114 129.5 59.5 115 45.5 104C34.3 95.2 15.1667 107 -0.5 104V120.5C20 109.5 71.5 150.5 112 135C128.728 128.598 107.5 106.333 95.5 97.5C84.3333 91 65.8 74.7 81 61.5C100 45 110.5 57 142 56.5C173.5 56 164.5 33.5 183.5 14C194.613 2.59417 206.667 -7.66667 214 -9.5Z" fill="#CED6A2" stroke="#CED6A2"/>
<path d="M69 22C110.5 35 122.167 3.33333 124.5 -8H149C144.5 -8 135.5 7.5 127.5 19.5C119.5 31.5 103 36 82.5 31C66.1 27 50.6667 29.3333 45 31C20.2 43.8 31.6667 61 40.5 68C55 78 81.6 99.8 72 107C62.4 114.2 20 101 0 93.5V71C6.16667 76.5 22.9 89.6 40.5 98C54 105 59.5 87.5 36.5 71C18.1 57.8 11.5 49.1667 10.5 46.5C0 25 24.5 11 69 22Z" fill="#FDDC77" stroke="#FDDC77"/>
<path d="M188 -8H145.5C141.333 -2.16667 132.3 11.2 129.5 18C126 26.5 105 34.5 89.5 29.5C77.1 25.5 60.6744 25 50 29.5C9.2 46.7 38 68.5 55 79C80.7467 94.9024 74 112 58.5 108.5C45.6006 105.587 44.5 105 -1 94.5V105C30.5 106.5 74.5 136.5 94.5 125.5C110.5 116.7 85.1667 96.1667 70.5 87C61 80.5 45.3 64.1 58.5 50.5C71.7 36.9 95.3333 41.5 105.5 45.5C118 53 148.5 51.5 158.5 25C166.5 3.8 181.5 -5.83333 188 -8Z" fill="#B3D5D4" stroke="#B3D5D4"/>
</g>
<defs>
<clipPath id="clip0_2_12">
<rect width="204" height="143" fill="white"/>
</clipPath>
</defs>
</svg>
 
